<?xml version="1.0" encoding="utf-8"?>
<!-- Generator: Adobe Illustrator 18.1.1, SVG Export Plug-In . SVG Version: 6.00 Build 0)  -->
<svg version="1.1" xmlns="http://www.w3.org/2000/svg" xmlns:xlink="http://www.w3.org/1999/xlink" x="0px" y="0px"
	 viewBox="0 0 100 100" enable-background="new 0 0 100 100" xml:space="preserve">
<g id="图层_3">
	<path fill="#AC72A8" d="M97.1,93.3c-2.2,3.2-5.8,5.3-9.9,5.3H13.7c-6.6,0-12-5.4-12-12V13c0-6.6,5.4-12,12-12h73.5
		c6.6,0,12,5.4,12,12v73.6C99.2,89.1,98.4,91.4,97.1,93.3"/>
</g>
<g id="图层_6">
	<path fill="#E1C9E0" d="M96.5,92.7c-2.1,3.1-5.7,5.2-9.8,5.2H14.2c-6.5,0-11.8-5.3-11.8-11.8V13.5C2.3,7,7.7,1.7,14.2,1.7h72.5
		c6.5,0,11.8,5.3,11.8,11.8v72.6C98.5,88.6,97.8,90.8,96.5,92.7"/>
</g>
<g id="图层_7">
	<path fill="#EEE1EE" d="M96.5,92.7c-2.1,3.1-5.7,5.2-9.8,5.2H20.2c-6.5,0-11.8-5.3-11.8-11.8V13.5C8.3,7,13.7,1.7,20.2,1.7h66.5
		c6.5,0,11.8,5.3,11.8,11.8v72.6C98.5,88.6,97.8,90.8,96.5,92.7"/>
</g>
<g id="图层_4">
	<path fill="#B577B0" d="M75.9,62.9l-6.6-11.2c1.1-2.2,1.6-4.8,1.6-7.2c0-9.6-7.9-17.3-17.5-17.3s-17.5,7.7-17.5,17.3
		c0,2.6,0.5,5,1.6,7.2l-6.6,11.2c-0.2,0.2-0.2,0.5,0,0.8c0.2,0.3,0.3,0.5,0.6,0.5c0,0,4.2,0.8,8.3,1.8l5.6,6.3
		c0.2,0.2,0.5,0.3,0.6,0.3c0.3,0,0.5-0.2,0.6-0.3l5.9-10.3h1.3L60,72.2c0.2,0.2,0.3,0.3,0.6,0.3c0.2,0,0.5-0.2,0.6-0.3l5.6-6.3
		c4.3-0.8,8.3-1.8,8.3-1.8c0.3,0,0.5-0.2,0.6-0.5C76,63.4,76,63,75.9,62.9L75.9,62.9z M53.4,31.4c7.1,0,12.8,5.8,12.8,12.8
		s-5.8,12.8-12.8,12.8s-12.8-5.8-12.8-12.8S46.4,31.4,53.4,31.4L53.4,31.4z M53.4,31.4"/>
	<path fill="#C7A3CB" d="M43.6,44.3c0,5.4,4.4,9.8,9.8,9.8s9.8-4.4,9.8-9.8v0c0-5.4-4.4-9.8-9.8-9.8C48,34.5,43.6,38.9,43.6,44.3
		C43.6,44.3,43.6,44.3,43.6,44.3L43.6,44.3z M43.6,44.3"/>
</g>
</svg>
