<?xml version="1.0" encoding="utf-8"?>
<!-- Generator: Adobe Illustrator 18.1.1, SVG Export Plug-In . SVG Version: 6.00 Build 0)  -->
<svg version="1.1" xmlns="http://www.w3.org/2000/svg" xmlns:xlink="http://www.w3.org/1999/xlink" x="0px" y="0px"
	 viewBox="0 0 100 100" enable-background="new 0 0 100 100" xml:space="preserve">
<g id="图层_3">
	<path fill="#DE8733" d="M97.1,93.3c-2.2,3.2-5.8,5.3-9.9,5.3H13.7c-6.6,0-12-5.4-12-12V13c0-6.6,5.4-12,12-12h73.5
		c6.6,0,12,5.4,12,12v73.6C99.2,89.1,98.4,91.4,97.1,93.3"/>
</g>
<g id="图层_6">
	<path fill="#EFBF91" d="M96.5,92.7c-2.1,3.1-5.7,5.2-9.8,5.2H14.2c-6.5,0-11.8-5.3-11.8-11.8V13.5C2.3,7,7.7,1.7,14.2,1.7h72.5
		c6.5,0,11.8,5.3,11.8,11.8v72.6C98.5,88.6,97.8,90.8,96.5,92.7"/>
</g>
<g id="图层_7">
	<path fill="#F3DCC3" d="M96.5,92.7c-2.1,3.1-5.7,5.2-9.8,5.2H20.2c-6.5,0-11.8-5.3-11.8-11.8V13.5C8.3,7,13.7,1.7,20.2,1.7h66.5
		c6.5,0,11.8,5.3,11.8,11.8v72.6C98.5,88.6,97.8,90.8,96.5,92.7"/>
</g>
<g id="图层_4">
	<g>
		<g>
			<path fill="#E78B30" d="M70.5,27.9H37c-1.8,0-3.2,1.5-3.2,3.4V70c0,1.9,1.4,3.4,3.2,3.4h27c5.4,0,9.8-4.6,9.8-10.3V31.3
				C73.7,29.4,72.3,27.9,70.5,27.9L70.5,27.9z M43.7,37.6h10.5c1.1,0,2,0.9,2,2.1c0,1.2-0.9,2.1-2,2.1H43.7c-1.1,0-2-0.9-2-2.1
				C41.7,38.5,42.6,37.6,43.7,37.6L43.7,37.6z M43.7,46.4h16c1.1,0,2,0.9,2,2.1c0,1.2-0.9,2.1-2,2.1h-16c-1.1,0-2-0.9-2-2.1
				C41.7,47.4,42.6,46.4,43.7,46.4L43.7,46.4z M48.7,59.4h-5c-1.1,0-2-0.9-2-2.1c0-1.2,0.9-2.1,2-2.1h5c1.1,0,2,0.9,2,2.1
				C50.7,58.5,49.8,59.4,48.7,59.4L48.7,59.4z M67.8,54.3l-2.7,5h2c0.1,0,0.2,0.1,0.2,0.2v1.7c0,0.1-0.1,0.2-0.2,0.2H64v1.3h3.1
				c0.1,0,0.2,0.1,0.2,0.2v1.7c0,0.1-0.1,0.2-0.2,0.2H64v3.4c0,0.1-0.1,0.2-0.2,0.2h-2.6c-0.1,0-0.2-0.1-0.2-0.2v-3.4h-3
				c-0.1,0-0.2-0.1-0.2-0.2v-1.7c0-0.1,0.1-0.2,0.2-0.2h3v-1.3h-3c-0.1,0-0.2-0.1-0.2-0.2v-1.7c0-0.1,0.1-0.3,0.2-0.3h1.8l-2.7-5
				c-0.1-0.2,0-0.4,0.2-0.4h3l2.2,4.5l2.2-4.5h2.9C67.8,53.9,67.9,54.1,67.8,54.3L67.8,54.3z M67.8,54.3"/>
		</g>
	</g>
</g>
</svg>
