<?xml version="1.0" encoding="utf-8"?>
<!-- Generator: Adobe Illustrator 18.1.1, SVG Export Plug-In . SVG Version: 6.00 Build 0)  -->
<svg version="1.1" xmlns="http://www.w3.org/2000/svg" xmlns:xlink="http://www.w3.org/1999/xlink" x="0px" y="0px"
	 viewBox="0 0 100 100" enable-background="new 0 0 100 100" xml:space="preserve">
<g id="图层_3">
	<path fill="#34A554" d="M97.1,93.3c-2.2,3.2-5.8,5.3-9.9,5.3H13.7c-6.6,0-12-5.4-12-12V13c0-6.6,5.4-12,12-12h73.5
		c6.6,0,12,5.4,12,12v73.6C99.2,89.1,98.4,91.4,97.1,93.3"/>
</g>
<g id="图层_6">
	<path fill="#98C789" d="M96.5,92.7c-2.1,3.1-5.7,5.2-9.8,5.2H14.2c-6.5,0-11.8-5.3-11.8-11.8V13.5C2.3,7,7.7,1.7,14.2,1.7h72.5
		c6.5,0,11.8,5.3,11.8,11.8v72.6C98.5,88.6,97.8,90.8,96.5,92.7"/>
</g>
<g id="图层_7">
	<path fill="#C2DDBC" d="M96.5,92.7c-2.1,3.1-5.7,5.2-9.8,5.2H20.2c-6.5,0-11.8-5.3-11.8-11.8V13.5C8.3,7,13.7,1.7,20.2,1.7h66.5
		c6.5,0,11.8,5.3,11.8,11.8v72.6C98.5,88.6,97.8,90.8,96.5,92.7"/>
</g>
<g id="图层_4">
	<g>
		<path fill="#34A554" d="M75.7,53.5v10.7c0,0.6-0.1,1.2-0.4,1.7c-0.3,0.5-0.6,0.9-1.1,1.2l-9.4,5.7c-0.3,0.2-0.7,0.4-1.2,0.4
			c-0.4,0-0.8-0.1-1.2-0.4l-9.4-5.7C53.1,67.1,53,67,53,67c0,0-0.1,0.1-0.1,0.1l-9.4,5.7c-0.3,0.2-0.7,0.4-1.2,0.4
			c-0.4,0-0.8-0.1-1.2-0.4l-9.4-5.7c-0.5-0.3-0.8-0.7-1.1-1.2c-0.3-0.5-0.4-1.1-0.4-1.7V53.5c0-0.6,0.1-1.2,0.5-1.8
			c0.3-0.5,0.7-1,1.2-1.2l9.1-4.8V35.5c0-0.6,0.1-1.2,0.5-1.8c0.3-0.5,0.7-1,1.2-1.2l9.4-4.9c0.3-0.2,0.7-0.3,1-0.3
			c0.4,0,0.7,0.1,1,0.3l9.4,4.9c0.5,0.3,0.9,0.7,1.2,1.2c0.3,0.5,0.4,1.1,0.4,1.8v10.3l9.1,4.8c0.5,0.3,0.9,0.7,1.2,1.2
			C75.6,52.3,75.7,52.9,75.7,53.5L75.7,53.5z M42.2,57.5l8.5-4.4l-8.5-4.4L33.8,53L42.2,57.5z M43.6,69.1l8-4.9v-8.1l-8,4.2V69.1z
			 M53,40.2l9.2-4.8L53,30.5l-9.2,4.8L53,40.2z M54.3,50l8-4.2v-6.8l-8,4.2V50z M63.7,57.5l8.5-4.4l-8.5-4.4L55.2,53L63.7,57.5z
			 M65,69.1l8-4.9v-8.1l-8,4.2V69.1z M65,69.1"/>
	</g>
</g>
</svg>
