<?xml version="1.0" encoding="utf-8"?>
<!-- Generator: Adobe Illustrator 18.1.1, SVG Export Plug-In . SVG Version: 6.00 Build 0)  -->
<svg version="1.1" xmlns="http://www.w3.org/2000/svg" xmlns:xlink="http://www.w3.org/1999/xlink" x="0px" y="0px"
	 viewBox="0 0 100 100" enable-background="new 0 0 100 100" xml:space="preserve">
<g id="图层_3">
	<path fill="#70A8DB" d="M97.1,93.3c-2.2,3.2-5.8,5.3-9.9,5.3H13.7c-6.6,0-12-5.4-12-12V13c0-6.6,5.4-12,12-12h73.5
		c6.6,0,12,5.4,12,12v73.6C99.2,89.1,98.4,91.4,97.1,93.3"/>
</g>
<g id="图层_6">
	<path fill="#BBDEF0" d="M96.5,92.7c-2.1,3.1-5.7,5.2-9.8,5.2H14.2c-6.5,0-11.8-5.3-11.8-11.8V13.5C2.3,7,7.7,1.7,14.2,1.7h72.5
		c6.5,0,11.8,5.3,11.8,11.8v72.6C98.5,88.6,97.8,90.8,96.5,92.7"/>
</g>
<g id="图层_7">
	<path fill="#DCEBF3" d="M96.5,92.7c-2.1,3.1-5.7,5.2-9.8,5.2H20.2c-6.5,0-11.8-5.3-11.8-11.8V13.5C8.3,7,13.7,1.7,20.2,1.7h66.5
		c6.5,0,11.8,5.3,11.8,11.8v72.6C98.5,88.6,97.8,90.8,96.5,92.7"/>
</g>
<g id="图层_5">
	<path fill="#B3D6F0" d="M67.4,34.9c1.3-0.5,1.5-1.2,1.5-1.6s-0.2-1.1-1.5-1.6l-15.6-5.8c-1.5-0.5-4-0.5-5.5,0l-15.6,5.8
		c-1.3,0.5-1.5,1.2-1.5,1.6s0.2,1.1,1.5,1.6l15.6,5.8c0.7,0.3,1.7,0.4,2.8,0.4c1,0,2-0.2,2.8-0.4L67.4,34.9z M45.3,42.7l-13.9-5.2
		c-0.4-0.1-0.7-0.2-1-0.2c-1.3,0-2.1,1-2.1,2.6v17.3c0,1.8,1.2,3.7,2.8,4.3l13.7,5.2c0.4,0.1,0.6,0.2,1,0.2c1.5,0,2.5-1.1,2.5-2.6
		V46.9C48.3,45.2,47,43.3,45.3,42.7L45.3,42.7z M54.2,63.3c-0.5-0.1-1.2-0.7-1.2-1.4l0-2c0-0.7,0.8-1.3,1.3-1.5l0.9-0.3
		c0.2-0.6,0.4-1.2,0.7-1.8l-0.5-0.9c-0.3-0.6-0.2-1.3,0.3-1.8l1.4-1.4c0.4-0.4,1.2-0.6,1.8-0.2l0.9,0.5c0.5-0.3,1.1-0.5,1.8-0.7
		l0.3-0.8c0.2-0.6,0.8-1.1,1.4-1.1l2.1,0c0.4,0,1,0.2,1.3,1l0.3,0.7c0.7,0.2,1.3,0.5,1.9,0.8l0.6-0.4c0.3-0.1,0.7-0.2,0.7-0.2V39.8
		c0-0.9-0.2-1.7-0.9-2.1c-0.7-0.5-1.6-0.6-2.5-0.2l-13.7,5.2c-1.6,0.6-2.9,2.5-2.9,4.3v17.3c0,1,0.4,1.8,1.1,2.2
		c0.3,0.2,0.8,0.4,1.2,0.4c0.3,0,0.7-0.1,1.1-0.2l1.9-0.8l0.2-0.4c-0.4-0.7-0.6-1.3-0.8-1.8L54.2,63.3z M54.2,63.3"/>
	<rect x="28.3" y="25.6" fill="none" width="46.6" height="46"/>
	<path fill="#FFFFFF" d="M64.3,55.3c-3.1,0-5.7,2.5-5.7,5.7s2.5,5.7,5.7,5.7c3.1,0,5.7-2.5,5.7-5.7S67.5,55.3,64.3,55.3L64.3,55.3z
		 M64.3,63c-0.8,0-1.5-0.4-1.9-1.1c-0.4-0.7-0.4-1.5,0-2.2c0.4-0.7,1.1-1.1,1.9-1.1c1.2,0,2.1,1,2.1,2.1C66.3,62,65.4,63,64.3,63
		L64.3,63z M64.3,63"/>
	<path fill="#9BCAE8" d="M74.9,59.8c0-0.4-0.2-0.7-0.5-0.8L73,58.7c-0.2-0.9-0.5-1.7-1-2.5l0.6-1.1c0.2-0.3,0.1-0.8-0.1-1l-1.4-1.4
		c-0.2-0.2-0.4-0.2-0.6-0.2c-0.1,0-0.3,0-0.4,0.1l-1.1,0.6c-0.8-0.4-1.6-0.8-2.4-1l-0.4-1c-0.1-0.3-0.5-0.7-0.8-0.7l-2,0
		c-0.4,0-0.7,0.3-0.8,0.6l-0.4,1.2c-0.8,0.2-1.6,0.5-2.4,0.9l-1.2-0.7c-0.1-0.1-0.3-0.1-0.4-0.1c-0.2,0-0.5,0.1-0.6,0.2l-1.4,1.4
		c-0.2,0.2-0.3,0.7-0.1,1l0.7,1.2c-0.4,0.7-0.8,1.5-1,2.3L54.4,59c-0.3,0.1-0.8,0.5-0.8,0.8l0,2c0,0.4,0.4,0.7,0.8,0.8l1.1,0.4
		c0.2,0.8,0.6,1.6,1,2.3l-0.6,1.2c-0.2,0.3-0.1,0.8,0.2,1l1.4,1.4c0.2,0.2,0.4,0.2,0.6,0.2c0.1,0,0.3,0,0.4-0.1l1.2-0.6
		c0.7,0.4,1.5,0.8,2.4,1l0.4,1.2c0.1,0.3,0.4,0.8,0.8,0.8l2.1,0c0.4,0,0.7-0.5,0.8-0.8l0.4-1c0.9-0.2,1.7-0.6,2.4-1.1l1.1,0.6
		c0.1,0.1,0.2,0.1,0.4,0.1c0.2,0,0.5-0.1,0.6-0.2l1.4-1.4c0.2-0.2,0.3-0.7,0.1-1L72,65.5c0.5-0.8,0.8-1.6,1-2.5l1.3-0.4
		c0.3-0.1,0.5-0.5,0.5-0.8L74.9,59.8z M64.3,67.2c-3.4,0-6.3-2.8-6.3-6.3c0-3.4,2.8-6.3,6.3-6.3c3.4,0,6.3,2.8,6.3,6.3
		C70.6,64.4,67.8,67.2,64.3,67.2L64.3,67.2z M64.3,67.2"/>
</g>
</svg>
