<?xml version="1.0" encoding="utf-8"?>
<!-- Generator: Adobe Illustrator 18.1.1, SVG Export Plug-In . SVG Version: 6.00 Build 0)  -->
<svg version="1.1" xmlns="http://www.w3.org/2000/svg" xmlns:xlink="http://www.w3.org/1999/xlink" x="0px" y="0px"
	 viewBox="0 0 100 100" enable-background="new 0 0 100 100" xml:space="preserve">
<g id="图层_3">
	<path fill="#D56D9F" d="M97.1,93.3c-2.2,3.2-5.8,5.3-9.9,5.3H13.7c-6.6,0-12-5.4-12-12V13c0-6.6,5.4-12,12-12h73.5
		c6.6,0,12,5.4,12,12v73.6C99.2,89.1,98.4,91.4,97.1,93.3"/>
</g>
<g id="图层_6">
	<path fill="#E6A5C4" d="M96.5,92.7c-2.1,3.1-5.7,5.2-9.8,5.2H14.2c-6.5,0-11.8-5.3-11.8-11.8V13.5C2.3,7,7.7,1.7,14.2,1.7h72.5
		c6.5,0,11.8,5.3,11.8,11.8v72.6C98.5,88.6,97.8,90.8,96.5,92.7"/>
</g>
<g id="图层_7">
	<path fill="#F4CBDE" d="M96.5,92.7c-2.1,3.1-5.7,5.2-9.8,5.2H20.2c-6.5,0-11.8-5.3-11.8-11.8V13.5C8.3,7,13.7,1.7,20.2,1.7h66.5
		c6.5,0,11.8,5.3,11.8,11.8v72.6C98.5,88.6,97.8,90.8,96.5,92.7"/>
</g>
<g id="图层_4">
	<g>
		<g>
			<path fill="#D56D9F" d="M53.3,48.2c5.7,0,10.4-4.7,10.4-10.4s-4.7-10.4-10.4-10.4S42.9,32,42.9,37.8S47.6,48.2,53.3,48.2
				L53.3,48.2z M75,61.8c-0.6-0.5-9.3-8.3-9.9-8.9c-0.6-0.6-1.2-0.6-1.2-0.6H49.6c0,0-2.4,0.2-2.3,2.3c0,1.3,0.9,2.5,2.3,2.8
				c1.2,0.2,4.2,0.5,6.4,0.6c0.8,0.1,0,0.6,0,0.6l-2.8,2h-9.7c0,0-4-2.9-6.5-4.9c-4.2-3-5.8,0-5.8,0s-0.5,1.1,0,1.7
				c2.3,2.1,10.3,9.3,10.9,9.8c0.6,0.5,1.3,0.3,1.3,0.3s15.4,0,16.7,0c1.3,0,2.2,0.8,2.2,0.8s2.6,2.3,3.3,2.8c1.3,1.1,2,0,2,0
				l7.5-8.1C75,63.2,75.7,62.4,75,61.8L75,61.8z M75,61.8"/>
		</g>
	</g>
	<g>
		<path fill="#FFFFFF" d="M47,34.7c1.5-1.1,2.6-2.3,3.4-3.6l0.9,0.5c-0.4,0.6-0.8,1.2-1.3,1.7v3.5H49v-2.5c-0.5,0.5-1,0.9-1.5,1.3
			C47.3,35.3,47.2,35,47,34.7z M52.7,38.8h1c0,1,0,1.7-0.1,2c1.7,0.6,3.5,1.3,5.4,2l-0.5,1c-1.9-0.8-3.6-1.5-5.2-2.1
			c-0.7,1.1-2.5,1.8-5.5,2.1c-0.1-0.3-0.3-0.6-0.5-1c2.9-0.2,4.6-0.8,5.2-1.7C52.6,40.8,52.7,40,52.7,38.8z M48.6,37.3h9.2v4.2h-1
			v-3.4h-7.2v3.4h-1V37.3z M50.8,34.3c1-0.2,1.9-0.5,2.7-0.8v-2.3h1v2c1.3-0.5,2.4-1,3.4-1.6l0.6,0.9c-1.3,0.6-2.6,1.2-4,1.7v0.6
			c0,0.6,0.3,0.9,0.8,0.9h2c0.6,0,0.9-0.2,1-0.7c0.1-0.4,0.1-0.8,0.1-1.3c0.3,0.1,0.6,0.3,1,0.4c-0.1,0.6-0.1,1-0.2,1.4
			c-0.2,0.8-0.7,1.2-1.8,1.2h-2.3c-1.1,0-1.6-0.5-1.6-1.6v-0.4c-0.7,0.3-1.5,0.5-2.3,0.7L50.8,34.3z"/>
	</g>
</g>
</svg>
